<?xml version="1.0" standalone="no"?>
<!DOCTYPE svg PUBLIC "-//W3C//DTD SVG 20010904//EN"
 "http://www.w3.org/TR/2001/REC-SVG-20010904/DTD/svg10.dtd">
<svg version="1.0" xmlns="http://www.w3.org/2000/svg"
 width="500.000000pt" height="500.000000pt" viewBox="0 0 500.000000 500.000000"
 preserveAspectRatio="xMidYMid meet">

<g transform="translate(0.000000,500.000000) scale(0.100000,-0.100000)"
fill="#000000" stroke="none">
<path d="M2290 4629 c-457 -46 -903 -257 -1235 -584 -400 -393 -615 -908 -615
-1470 0 -529 186 -1004 552 -1407 55 -61 89 -109 114 -162 34 -74 103 -301
140 -458 10 -43 20 -78 23 -78 3 0 14 26 24 58 43 133 111 265 195 376 189
247 455 412 777 481 109 24 360 24 470 1 186 -40 397 -133 529 -234 206 -158
366 -383 443 -624 10 -32 20 -58 23 -58 3 0 18 51 34 113 89 347 136 465 224
561 313 340 493 712 557 1146 22 150 22 427 0 575 -58 388 -214 738 -463 1036
-437 521 -1114 796 -1792 728z m-465 -1581 c245 -70 416 -296 416 -551 1 -110
-12 -168 -57 -262 -172 -361 -650 -446 -935 -165 -251 248 -234 643 38 871
150 126 342 164 538 107z m1675 5 c182 -49 346 -206 401 -382 67 -214 12 -442
-146 -597 -184 -182 -440 -222 -675 -108 -55 27 -95 57 -150 113 -117 118
-170 246 -170 409 0 388 366 668 740 565z"/>
</g>
</svg>
